PathFileType	4	(X/Y/Z)	Run_400 01
DataRate	CameraRate	NumFrames	NumMarkers	Units	OrigDataRate	OrigDataStartFrame	OrigNumFrames
120	120	4	41	mm	120	7	125
Frame#	Time	LASI			RASI			LPSI			RPSI			RTH1			RTH3			LTH1			LTH2			LTH3			RTB1			RTB2			RTB3			LTB1			LTB2			LTB3			RCAL			RTOE			RMT5			LCAL			LTOE			LMT5			LACR			RACR			CLAV			C7			RUA1			RUA2			RUA3			RLEL			RMEL			LUA1			LUA2			LUA3			LLEL			LMEL			RFAsuperior			RFAradius			RFAulna			LFAsuperior			LFAradius			LFAulna			
		X1	Y1	Z1	X2	Y2	Z2	X3	Y3	Z3	X4	Y4	Z4	X5	Y5	Z5	X6	Y6	Z6	X7	Y7	Z7	X8	Y8	Z8	X9	Y9	Z9	X10	Y10	Z10	X11	Y11	Z11	X12	Y12	Z12	X13	Y13	Z13	X14	Y14	Z14	X15	Y15	Z15	X16	Y16	Z16	X17	Y17	Z17	X18	Y18	Z18	X19	Y19	Z19	X20	Y20	Z20	X21	Y21	Z21	X22	Y22	Z22	X23	Y23	Z23	X24	Y24	Z24	X25	Y25	Z25	X26	Y26	Z26	X27	Y27	Z27	X28	Y28	Z28	X29	Y29	Z29	X30	Y30	Z30	X31	Y31	Z31	X32	Y32	Z32	X33	Y33	Z33	X34	Y34	Z34	X35	Y35	Z35	X36	Y36	Z36	X37	Y37	Z37	X38	Y38	Z38	X39	Y39	Z39	X40	Y40	Z40	X41	Y41	Z41	

1	0.341667	994.110456	1020.43804	-419.066093	984.120266	1022.516932	-192.900947	835.415533	1071.321923	-356.744214	820.319672	1066.234702	-260.534905	954.163633	858.868461	-126.588686	1065.597446	627.251673	-188.829144	894.6974750000001	837.302099	-474.605527	892.617223	718.881921	-440.377428	779.008481	644.730934	-428.830492	1184.684293	432.818946	-267.311791	1166.431497	365.668023	-202.836466	1195.022665	311.061303	-273.648173	632.0167290000001	483.797042	-354.409813	548.7343990000001	530.985824	-413.692097	460.776807	479.236998	-349.369487	1139.582292	110.182316	-278.891829	1331.450775	193.384178	-315.600465	1329.703412	158.758867	-225.171309	332.862214	569.279056	-335.810883	288.930845	367.25318	-315.429196	253.091513	388.125542	-396.044312	1013.270121	1490.936705	-461.489512	879.72115	1483.721554	-104.293703	994.45404	1471.784943	-240.693687	891.511907	1533.627196	-311.091976	765.3077919999999	1403.533851	-72.487352	716.947133	1422.751669	-128.384643	689.185302	1360.23429	-61.890339	624.924074	1318.530558	-57.560162	616.655439	1300.430534	-138.833357	973.653594	1374.842293	-544.662875	904.520773	1340.772248	-567.033889	970.686196	1293.242343	-576.7218800000001	924.2951440000001	1223.140943	-610.8557049999999	852.779548	1223.208279	-555.976149	679.938294	1203.297413	-42.401952	731.140262	1094.53498	-78.969871	675.513514	1074.795634	-41.687978	1015.809264	1192.968849	-521.376713	1049.907957	1213.8135	-401.647165	1080.928993	1161.007648	-433.625345	
2	0.35	994.002209	1015.538469	-418.019217	982.165089	1017.60097	-191.950631	834.635322	1064.229222	-357.749381	819.018352	1059.224788	-261.329149	950.464364	851.9651679999999	-126.980957	1060.075838	620.591666	-190.3513	899.047112	830.116408	-475.028867	899.3853350000001	712.192019	-442.823934	788.484549	635.21564	-431.28755	1175.513156	423.205205	-268.42962	1154.843207	355.529393	-205.126217	1183.922353	301.399874	-276.239884	643.125812	480.578938	-356.587578	563.017587	532.09055	-415.969686	472.369477	488.402818	-350.182679	1124.830099	101.851963	-285.517663	1318.803453	182.832701	-316.274804	1314.398982	145.900213	-226.873342	350.909475	586.332511	-335.084731	293.864787	386.925413	-320.849486	261.362589	412.234147	-401.706267	1012.871091	1485.141514	-462.046963	882.630837	1477.920636	-102.952141	995.568986	1466.188347	-240.751626	892.140223	1528.679097	-310.190383	768.650302	1395.992029	-70.358707	719.434652	1415.219032	-125.303342	693.1425369999999	1351.64026	-59.098529	629.228963	1309.480134	-54.439093	620.8931679999999	1291.35864	-135.837415	970.9615659999999	1369.398103	-544.425657	901.162649	1336.290581	-565.867942	966.1814409999999	1287.038341	-574.752386	918.5453230000001	1218.214753	-609.543832	847.717126	1219.326142	-553.728823	685.357331	1194.666456	-39.458711	737.764409	1086.64492	-76.246089	682.347676	1066.230081	-39.081953	1010.854595	1184.955209	-522.104284	1047.457884	1202.924833	-402.674618	1076.403452	1149.785104	-435.974316	
3	0.358333	993.6555509999999	1010.032778	-417.711364	980.112636	1011.737964	-190.930185	833.629955	1056.538389	-358.911601	817.961849	1051.562119	-262.544154	947.169635	845.333764	-127.838102	1054.227146	613.1186750000001	-192.093963	902.402542	822.396986	-475.696391	906.089829	705.03103	-445.739906	798.190341	625.138553	-433.88798	1165.12423	412.313848	-269.586495	1141.158211	344.364617	-207.511509	1170.65803	290.448293	-278.578879	655.658375	476.333379	-359.349012	578.598793	532.242794	-418.879925	486.152361	496.263934	-351.292108	1106.64831	95.136948	-291.13767	1303.157439	168.943539	-317.837419	1296.076878	130.967789	-228.918673	371.135721	600.994832	-334.703375	302.134754	404.857653	-325.989436	273.409576	433.781503	-407.128492	1012.20694	1478.499873	-462.885098	885.7202600000001	1471.203882	-101.522292	996.635459	1459.892147	-241.174182	892.902545	1523.29102	-309.593765	772.418679	1387.301976	-67.896424	722.075476	1406.647035	-121.635196	697.4864690000001	1341.814496	-56.054065	634.056289	1299.220225	-50.75578	625.521697	1281.089917	-132.171469	968.026805	1362.992996	-544.2891049999999	897.434269	1331.039543	-564.75327	961.235306	1280.021859	-572.902555	912.340267	1212.599942	-608.368021	842.4185199999999	1214.647763	-551.6427169999999	691.531196	1184.938284	-36.255657	745.166587	1077.75593	-73.734999	690.165904	1056.579545	-36.408855	1005.37843	1176.043001	-523.224572	1044.772514	1190.790781	-404.172519	1071.276855	1137.52846	-439.050955	
4	0.366667	993.052183	1003.898161	-418.115457	978.041056	1005.074036	-189.984742	832.419361	1048.350955	-360.102218	816.9453999999999	1043.727438	-263.886545	944.758358	838.628576	-129.248928	1047.529167	604.694013	-193.910304	904.990237	814.090044	-476.7066	912.826144	697.435501	-449.079127	808.1845939999999	614.564609	-436.568458	1154.13881	400.54644	-270.884466	1125.89078	332.617717	-210.247806	1155.998678	278.554972	-281.015502	669.494465	471.208906	-362.772575	595.432313	531.540917	-422.309159	501.78366	502.459698	-353.116166	1085.826241	91.24255100000001	-295.895938	1285.366882	150.967682	-320.922935	1275.437809	114.148277	-231.786257	392.901093	613.440652	-334.878203	313.890995	420.734577	-330.985414	288.826044	452.403967	-412.272118	1011.095432	1471.181867	-463.923288	888.967545	1463.672921	-99.91699800000001	997.622244	1452.950505	-241.932304	893.701552	1517.469846	-309.213892	776.6496550000001	1377.593534	-65.055001	724.922282	1397.056829	-117.408942	702.300159	1330.882747	-52.72901	639.515606	1287.893829	-46.475718	630.558143	1269.774213	-127.815813	964.7342640000001	1355.677778	-544.293092	893.305802	1325.085371	-563.709235	955.783233	1272.271456	-571.1930609999999	905.732969	1206.416409	-607.408767	836.912312	1209.335013	-549.797998	698.5926490000001	1174.265129	-32.805902	753.4304530000001	1067.967027	-71.469932	699.074518	1046.021588	-33.628095	999.396103	1166.261487	-524.783649	1041.776397	1177.400145	-406.047918	1065.520991	1124.323948	-442.745764	
